<?xml version="1.0" standalone="no"?>
<!DOCTYPE svg PUBLIC "-//W3C//DTD SVG 20010904//EN"
 "http://www.w3.org/TR/2001/REC-SVG-20010904/DTD/svg10.dtd">
<svg version="1.0" xmlns="http://www.w3.org/2000/svg"
 width="131.000000pt" height="27.000000pt" viewBox="0 0 131.000000 27.000000"
 preserveAspectRatio="xMidYMid meet">
<metadata>
Created by potrace 1.16, written by Peter Selinger 2001-2019
</metadata>
<g transform="translate(0.000000,27.000000) scale(0.100000,-0.100000)"
fill="#000000" stroke="none">
<path d="M1085 248 c-11 -24 -27 -34 -67 -43 -46 -9 -68 -42 -68 -100 0 -41 5
-56 23 -73 32 -30 78 -37 115 -18 54 28 66 122 21 167 -22 22 -17 39 12 39 14
0 19 7 19 25 0 33 -41 35 -55 3z"/>
<path d="M40 203 c-21 -7 -40 -33 -40 -54 0 -26 26 -47 70 -59 41 -11 50 -26
28 -48 -18 -18 -46 -14 -60 8 -16 25 -38 26 -38 1 0 -28 28 -46 70 -46 51 0
72 20 68 63 -3 32 -7 37 -50 51 -57 20 -64 26 -48 46 16 19 44 19 60 0 16 -19
40 -19 40 -1 0 32 -58 54 -100 39z"/>
<path d="M770 105 l0 -95 65 0 c59 0 66 2 82 26 15 24 16 29 1 54 -11 19 -13
32 -6 45 7 11 7 25 -1 41 -10 22 -17 24 -76 24 l-65 0 0 -95z"/>
<path d="M180 85 c0 -59 3 -75 15 -75 10 0 15 15 17 58 3 49 6 57 23 57 17 0
20 -8 23 -57 2 -43 7 -58 17 -58 11 0 15 13 15 49 0 31 5 53 15 61 26 21 45
-5 45 -61 0 -37 4 -49 15 -49 12 0 15 13 15 58 0 72 -22 99 -67 87 -15 -5 -32
-7 -38 -5 -5 2 -29 5 -52 6 l-43 4 0 -75z"/>
</g>
</svg>
